<?xml version="1.0" standalone="no"?>
<!DOCTYPE svg PUBLIC "-//W3C//DTD SVG 20010904//EN"
 "http://www.w3.org/TR/2001/REC-SVG-20010904/DTD/svg10.dtd">
<svg version="1.0" xmlns="http://www.w3.org/2000/svg"
 width="512.000000pt" height="512.000000pt" viewBox="0 0 512.000000 512.000000"
 preserveAspectRatio="xMidYMid meet">
<metadata>
Created by potrace 1.14, written by Peter Selinger 2001-2017
</metadata>
<g transform="translate(0.000000,512.000000) scale(0.100000,-0.100000)"
fill="#000000" stroke="none">
<path d="M1970 5104 c-90 -39 -155 -149 -143 -241 3 -27 14 -65 25 -86 10 -20
212 -281 450 -579 386 -485 433 -548 450 -602 21 -69 66 -355 98 -616 l21
-175 -95 -385 c-85 -343 -98 -406 -116 -580 -12 -107 -24 -269 -27 -360 l-6
-165 56 -116 c70 -149 230 -386 530 -784 200 -266 243 -317 303 -362 63 -48
74 -53 123 -53 91 0 161 68 161 156 0 69 -55 161 -338 566 -159 227 -296 425
-306 440 -16 25 -16 41 9 355 14 180 26 339 28 352 1 17 68 -73 266 -360 l264
-384 210 -170 c116 -93 285 -231 375 -305 293 -242 316 -261 361 -280 70 -32
129 -27 200 18 80 50 102 112 65 185 -9 19 -175 171 -407 372 l-392 340 -221
331 -222 330 24 393 c12 217 25 395 26 397 2 2 53 -117 112 -264 60 -147 122
-286 138 -309 16 -24 50 -55 76 -70 39 -23 57 -27 118 -27 63 1 76 4 118 33
84 58 124 147 107 237 -5 27 -128 339 -272 694 l-263 645 -134 112 -134 111
-130 33 c-127 31 -135 32 -292 27 l-161 -6 -405 511 c-223 280 -429 537 -459
569 -81 88 -119 103 -191 72z"/>
<path d="M3374 5055 c-91 -18 -110 -26 -187 -77 -75 -50 -94 -69 -145 -145
-53 -80 -60 -97 -79 -191 -20 -102 -20 -103 -1 -200 18 -86 26 -107 79 -187
53 -81 68 -96 147 -147 77 -51 99 -60 187 -78 l99 -20 105 21 c94 19 113 27
189 77 73 49 93 69 142 142 52 77 60 96 79 188 l20 102 -20 103 c-18 91 -27
112 -76 187 -48 73 -68 94 -141 144 -79 55 -94 61 -191 81 l-106 21 -101 -21z"/>
<path d="M670 5019 c-145 -12 -281 -45 -371 -90 -64 -32 -81 -46 -101 -82
l-24 -43 25 -46 c22 -40 37 -52 101 -82 326 -157 1023 -104 1130 85 l23 42
-24 44 c-20 37 -37 51 -94 80 -91 47 -237 80 -405 93 -74 5 -139 9 -145 9 -5
-1 -57 -6 -115 -10z"/>
</g>
</svg>
